# xmcd
#
# Track frame offsets: 
#        150
#        11930
#        22756
#        31405
#        42243
#        56065
#        65177
#        75876
#        86643
#        93035
#        100332
#        111955
#        121343
#        133444
#        146421
#        155139
#        164078
#        172651
#        183526
#        192324
#        209903
#        221430
#        227458
#        239148
#        251053
#        267631
#        279462
#        291044
#        302732
#        316207
#        328412
#        342096
#
# Disc length: 4741 seconds
#
# Revision: 0
# Processed by: cddbd v1.5.2PL0 Copyright (c) Steve Scherf et al.
# Submitted via: ExactAudioCopy v0.99pb5
#
DISCID=e7128320
DTITLE=Elvis Presley  - FTD 74-1 - Blue Hawaii - CD 1
DYEAR=1900
DGENRE=
TTITLE0=Blue Hawaii
TTITLE1=Almost Always True
TTITLE2=Aloha Oe
TTITLE3=No More
TTITLE4=Can't Help Falling In Love
TTITLE5=Rock-A-Hula Baby
TTITLE6=Moonlight Swim
TTITLE7=Ku-U-I-Po
TTITLE8=Ito Eats
TTITLE9=Slicin' Sand
TTITLE10=Hawaiian Sunset
TTITLE11=Beach Boy Blues
TTITLE12=Island of Love
TTITLE13=Hawaiian Wedding Song
TTITLE14=Steppin' Out Of Line (Movie Version)
TTITLE15=Beach Boy Blues (Movie Version)
TTITLE16=Can't Help Falling In Love (Movie Version)
TTITLE17=Moonlight Swim (Undubbed Master)
TTITLE18=Steppin' Out Of Line (Record Version)
TTITLE19=Blue Hawaii (Takes 1,2,3)
TTITLE20=Almost Always True (Take 3)
TTITLE21=Aloha Oe (Section 2) (Take 1)
TTITLE22=No More (Take 7)
TTITLE23=Can't Help Falling In Love (Take 13)
TTITLE24=Rock-A-Hula Baby (Takes 1,2,3)
TTITLE25=Moonlight Swim (Take 2)
TTITLE26=Ku-U-I-Po (Take 1)
TTITLE27=Ito Eats (Takes 1,2)
TTITLE28=Slicin' Sand (Takes 1,2,3)
TTITLE29=Hawaiian Sunset (Take 1)
TTITLE30=Island Of Love (Take 8)
TTITLE31=Hawaiian Wedding Song (Take 1)
EXTD=
EXTT0=
EXTT1=
EXTT2=
EXTT3=
EXTT4=
EXTT5=
EXTT6=
EXTT7=
EXTT8=
EXTT9=
EXTT10=
EXTT11=
EXTT12=
EXTT13=
EXTT14=
EXTT15=
EXTT16=
EXTT17=
EXTT18=
EXTT19=
EXTT20=
EXTT21=
EXTT22=
EXTT23=
EXTT24=
EXTT25=
EXTT26=
EXTT27=
EXTT28=
EXTT29=
EXTT30=
EXTT31=
PLAYORDER=
